<svg width="637" height="148" viewBox="0 0 637 148" fill="none" xmlns="http://www.w3.org/2000/svg">
<path d="M636 74C636 78.7975 633.912 83.5598 629.779 88.2526C625.64 92.9519 619.49 97.5325 611.489 101.928C595.488 110.718 572.267 118.665 543.487 125.352C485.944 138.721 406.398 147 318.5 147C230.602 147 151.056 138.721 93.5128 125.352C64.7332 118.665 41.5123 110.718 25.5108 101.928C17.5096 97.5325 11.36 92.9519 7.22123 88.2526C3.08805 83.5598 1 78.7975 1 74C1 69.2025 3.08805 64.4402 7.22123 59.7474C11.36 55.0481 17.5096 50.4675 25.5108 46.0723C41.5123 37.2825 64.7332 29.3348 93.5128 22.6482C151.056 9.2786 230.602 1 318.5 1C406.398 1 485.944 9.2786 543.487 22.6482C572.267 29.3348 595.488 37.2825 611.489 46.0723C619.49 50.4675 625.64 55.0481 629.779 59.7474C633.912 64.4402 636 69.2025 636 74Z" fill="#0E0B9D" stroke="#00674B" stroke-width="2"/>
<ellipse cx="318.5" cy="74" rx="295" ry="68.54" fill="#D8D7FC"/>
</svg>
